# xmcd
#
# Track frame offsets:
#       182
#       8530
#       19077
#       30250
#       41890
#       50247
#       61200
#       70702
#       81772
#       92982
#       100387
#       110827
#       121505
#       130965
#       140640
#       150112
#
# Disc length: 2147 seconds
#
# Revision: 1
# Processed by: cddbd v1.4PL0 Copyright (c) Steve Scherf et al.
# Submitted via: MusiCat 1.1
#
DISCID=cc086110
DTITLE=Vari - Compilation great 60's
DYEAR=1900
DGENRE=
TTITLE0=Farmer's daughter-The Beach boys
TTITLE1=Lucille-Little Richard
TTITLE2=Surfin' USA-The BEach boys
TTITLE3=Great balls of fire-Jerry Lee Lewis
TTITLE4=Shut down-The Beach boys
TTITLE5=Roll over Beethoven-Chuck Berry
TTITLE6=Be true to your school-The Beach boys
TTITLE7=Jailhouse rock-Elvis Presley
TTITLE8=Tutti frutti-Little Richard
TTITLE9=Little dance coupe-The Beach boys
TTITLE10=Tell me what I say-Jerry Lee Lewis
TTITLE11=Let's twist again-Chuck Berry
TTITLE12=Little girl-The Beach boys
TTITLE13=Blue suede shoes-Elvis Presley
TTITLE14=Surfin' safari-The Beach boys
TTITLE15=Limbo rock-Chuck Berry
EXTD=0\n\n\n
EXTT0=
EXTT1=
EXTT2=
EXTT3=
EXTT4=
EXTT5=
EXTT6=
EXTT7=
EXTT8=
EXTT9=
EXTT10=
EXTT11=
EXTT12=
EXTT13=
EXTT14=
EXTT15=
PLAYORDER=
